<svg xmlns="http://www.w3.org/2000/svg" version="1.1" xmlns:xlink="http://www.w3.org/1999/xlink" width="512" height="512" x="0" y="0" viewBox="0 0 64 64" style="enable-background:new 0 0 512 512" xml:space="preserve" class=""><g><path d="M9.113 31.277a1 1 0 0 0 1.541-1.273 35.778 35.778 0 0 0-3.105-3.186c-.502-.473-1.003-.946-1.486-1.43l-.546-.548c-.41-.414-.822-.828-1.23-1.232a4.01 4.01 0 0 1 5.654-.001l4.351 4.36A1 1 0 0 0 16 27.26V9.5a1.5 1.5 0 1 1 3 0v13a1 1 0 0 0 2 0v-17a1.5 1.5 0 1 1 3 0V22a1 1 0 0 0 2 0V7.5a1.5 1.5 0 1 1 3 0V24a1 1 0 0 0 2 0V11.5a1.5 1.5 0 1 1 3 0V15a1 1 0 0 0 2 0v-3.5a3.519 3.519 0 0 0-1.022-2.476A3.63 3.63 0 0 0 31 8.338V7.5a3.519 3.519 0 0 0-1.022-2.476 3.638 3.638 0 0 0-4.148-.6A3.5 3.5 0 0 0 19 5.5v.838A3.5 3.5 0 0 0 14 9.5v15.346l-2.643-2.653a6.01 6.01 0 0 0-8.474-.01 1.988 1.988 0 0 0-.001 2.853c.409.4.812.806 1.215 1.212l.55.554c.498.498 1.014.984 1.53 1.47a34.617 34.617 0 0 1 2.936 3.005ZM17 49a1 1 0 0 0 1-1v-5.35c0-.608-.43-.831-.775-1.01-.375-.196-1.11-.576-1.25-.662a4.73 4.73 0 0 1-1.584-2.915 22.891 22.891 0 0 0-1.23-3.898 1 1 0 0 0-1.842.78 20.8 20.8 0 0 1 1.12 3.556 6.668 6.668 0 0 0 2.325 4.07 10.826 10.826 0 0 0 1.236.685V48a1 1 0 0 0 1 1ZM50 9a1.002 1.002 0 0 0-.805.406c-.018.026-1.841 2.503-3.976 5.8a1 1 0 1 0 1.68 1.087 135.327 135.327 0 0 1 3.104-4.583C53.4 16.486 60 26.663 60 31a10 10 0 0 1-20 0c0-1.522.844-4.742 4.861-11.445a1 1 0 0 0-1.714-1.028C39.73 24.224 38 28.42 38 31a12.01 12.01 0 0 0 11 11.95V49a1 1 0 0 0 2 0v-6.05A12.01 12.01 0 0 0 62 31c0-6.331-10.738-20.973-11.195-21.594A1.002 1.002 0 0 0 50 9Z" fill="#000000" opacity="1" data-original="#000000" class=""></path><path d="M52.163 36.597a1 1 0 0 0 .723 1.865A8.058 8.058 0 0 0 58 31c0-1.132-.605-2.912-1.849-5.441a1 1 0 1 0-1.795.882C55.84 29.458 56 30.634 56 31a6.045 6.045 0 0 1-3.837 5.597Z" fill="#000000" opacity="1" data-original="#000000" class=""></path><path d="M53 26.03c0-1.683-1.738-3-3.957-3a5.209 5.209 0 0 0-1.29.158 1 1 0 0 0-.752.97L47 27.9v4a1 1 0 0 0 .752.97 5.21 5.21 0 0 0 1.291.158c2.219 0 3.957-1.317 3.957-3a2.627 2.627 0 0 0-1.004-2 2.627 2.627 0 0 0 1.004-2Zm-3.999-1h.042c1.194 0 1.957.591 1.957 1 0 .412-.798 1.033-2 1Zm-.001 6v-2c1.205-.029 2 .586 2 1s-.798.983-2 1ZM35 51h-1v-8.004A5.008 5.008 0 0 0 36 39V19a1 1 0 0 0-2 0v20a2.997 2.997 0 0 1-1.499 2.593 1.002 1.002 0 0 0-.501.867V51h-3v-3a1 1 0 0 0-1-1h-6a1 1 0 0 0-1 1v8a1 1 0 0 0 1 1h6a1 1 0 0 0 1-1v-3h3v7H18v-5.5a1 1 0 0 0-2 0V61a1 1 0 0 0 1 1h16a1 1 0 0 0 1-1v-8h1a1 1 0 0 1 1 1v2a5.006 5.006 0 0 0 5 5h5a5.006 5.006 0 0 0 5-5v-3a1 1 0 0 0-2 0v3a3.003 3.003 0 0 1-3 3h-5a3.003 3.003 0 0 1-3-3v-2a3.003 3.003 0 0 0-3-3Zm-8 4h-4v-6h4Z" fill="#000000" opacity="1" data-original="#000000" class=""></path></g></svg>