<svg xmlns="http://www.w3.org/2000/svg" version="1.1" xmlns:xlink="http://www.w3.org/1999/xlink" width="512" height="512" x="0" y="0" viewBox="0 0 64 64" style="enable-background:new 0 0 512 512" xml:space="preserve" class=""><g><path d="M58 2H6a4.004 4.004 0 0 0-4 4v2a1 1 0 0 0 2 0V6a2.002 2.002 0 0 1 2-2h52a2.002 2.002 0 0 1 2 2v29a1 1 0 0 0 2 0V6a4.004 4.004 0 0 0-4-4ZM61 39a1 1 0 0 0-1 1v4a2.002 2.002 0 0 1-2 2H6a2.002 2.002 0 0 1-2-2V12.085a1 1 0 0 0-2 0V44a4.004 4.004 0 0 0 4 4h15v4a9.01 9.01 0 0 0-9 9 1 1 0 0 0 1 1h6a1 1 0 0 0 0-2h-4.929A7.01 7.01 0 0 1 21 54h22a7.01 7.01 0 0 1 6.929 6H23a1 1 0 0 0 0 2h28a1 1 0 0 0 1-1 9.01 9.01 0 0 0-9-9v-4h15a4.004 4.004 0 0 0 4-4v-4a1 1 0 0 0-1-1ZM41 52H23v-4h18Z" fill="#000000" opacity="1" data-original="#000000"></path><path d="M58 37V7a1 1 0 0 0-1-1H7a1 1 0 0 0-1 1v30a1 1 0 0 0 1 1h50a1 1 0 0 0 1-1Zm-2-1H8V8h48Z" fill="#000000" opacity="1" data-original="#000000"></path><circle cx="32" cy="42" r="2" fill="#000000" opacity="1" data-original="#000000"></circle><path d="M28 31a1 1 0 0 0 1 1h6a1 1 0 0 0 1-1v-5h5a1 1 0 0 0 1-1v-6a1 1 0 0 0-1-1h-5v-5a1 1 0 0 0-1-1h-6a1 1 0 0 0-1 1v5h-5a1 1 0 0 0-1 1v6a1 1 0 0 0 1 1h5Zm-4-7v-4h5a1 1 0 0 0 1-1v-5h4v5a1 1 0 0 0 1 1h5v4h-5a1 1 0 0 0-1 1v5h-4v-5a1 1 0 0 0-1-1Z" fill="#000000" opacity="1" data-original="#000000"></path><path d="M32 35.191A13.191 13.191 0 1 0 18.81 22 13.207 13.207 0 0 0 32 35.191Zm0-24.382A11.191 11.191 0 1 1 20.81 22 11.204 11.204 0 0 1 32 10.809Z" fill="#000000" opacity="1" data-original="#000000"></path></g></svg>